<?xml version="1.0" encoding="UTF-8"?> <svg xmlns="http://www.w3.org/2000/svg" id="Layer_2" data-name="Layer 2" viewBox="0 0 158.33 43.07"><g id="Layer_1-2" data-name="Layer 1"><g><g><path d="M65.56,30.61h-5.39l-1.5-2.94h-11.47l-1.5,2.94h-5.39l8.55-16.07h8.16l8.55,16.07ZM56.81,24.04l-3.03-5.9h-1.72l-3.03,5.9h7.78Z"></path><path d="M72.4,25.27v5.37h-5.5V14.54h13.16c5.46,0,8.19,1.75,8.19,5.24v.22c0,3.52-2.73,5.28-8.19,5.28h-7.67ZM72.4,21.66h7.57c1.7,0,2.55-.56,2.55-1.69v-.07c0-1.14-.85-1.71-2.55-1.71h-7.57v3.46Z"></path><path d="M108.66,14.48v3.67h-13.1v2.39h12.79v3.69h-12.79v2.65h13.34v3.75h-18.78V14.48h18.54Z"></path><path d="M131.13,26.2v4.43h-5v-2.88c0-1-.25-1.72-.75-2.16-.5-.45-1.35-.67-2.57-.67h-6.5v5.71h-4.98V14.54h12.83c4.6,0,6.91,1.39,6.91,4.17v.26c0,1.7-.98,2.88-2.95,3.53.9.26,1.63.7,2.18,1.31.56.61.83,1.41.83,2.39ZM125.87,19.75c0-.46-.16-.84-.49-1.12-.33-.29-.83-.43-1.52-.43h-7.55v3.16h7.55c.68,0,1.19-.14,1.52-.43.33-.29.49-.67.49-1.15v-.02Z"></path><path d="M145.99,14.54c1.53,0,2.91.09,4.15.28,1.24.19,2.28.44,3.13.74.84.31,1.58.68,2.21,1.13s1.12.89,1.47,1.34c.35.45.64.93.86,1.46s.36,1,.42,1.42c.06.42.09.86.09,1.32v.63c0,.45-.03.88-.09,1.3-.06.42-.2.9-.42,1.43s-.5,1.03-.85,1.48-.84.91-1.47,1.36-1.37.84-2.21,1.15c-.83.31-1.88.57-3.13.76-1.25.2-2.64.29-4.16.29h-.75c-1.53,0-2.92-.1-4.18-.29-1.26-.19-2.3-.45-3.14-.76-.83-.31-1.57-.7-2.21-1.15s-1.13-.91-1.49-1.36c-.35-.45-.64-.95-.85-1.48-.21-.54-.35-1.01-.41-1.43-.06-.42-.09-.85-.09-1.3v-.63c0-.46.03-.9.09-1.31.06-.41.2-.88.41-1.42.21-.54.5-1.03.85-1.47s.85-.89,1.47-1.34,1.36-.82,2.21-1.13c.84-.31,1.89-.55,3.15-.74,1.26-.19,2.65-.28,4.18-.28h.75ZM152.58,22.38c0-.39-.06-.76-.17-1.11-.11-.35-.32-.71-.64-1.09-.31-.38-.72-.7-1.23-.96-.5-.26-1.19-.48-2.05-.66-.71-.14-1.52-.23-2.42-.25-.2,0-.61,0-.74,0-4.46.08-6.69,1.43-6.69,4.07v.25c0,.5.1.98.29,1.42.2.45.53.89,1,1.34.47.45,1.2.8,2.19,1.07.91.24,2.01.38,3.29.39.11,0,.4,0,.56,0,1.18-.03,2.2-.15,3.07-.38.98-.26,1.72-.61,2.21-1.04.49-.44.83-.88,1.03-1.33.2-.45.3-.92.3-1.42v-.29Z"></path></g><g><path d="M15.9,23.3s0,0,0,0c-.42-.32.14-.73.14-.73-.92.21-1.12.67-1.14.71,0,0,0,0,0,0,0,0,0,0,0,0h0c-.23.46.52,1.66,3.55,2.42v-.52s-.78-.13-1.2-.57c-.29-.31-.81-.96-1.35-1.3Z"></path><path d="M22.49,23.27s0,0,0,0t0,0s-.22-.5-1.14-.71c0,0,.56.42.14.73,0,0,0,0,0,0-.55.34-1.06,1-1.35,1.3-.41.43-1.2.57-1.2.57v.52c3.03-.76,3.78-1.96,3.55-2.42h0Z"></path><path d="M31.4,3.01c.75,2.77.62,5.23.62,5.23-.86-3.14-3.42-6.06-3.42-6.06C24.37-.07,18.7,0,18.7,0,18.7,0,14.32-.05,10.39,1.46c2.74,2.48,7.71,4.71,7.71,4.71.1,2.62.44,7.37.56,9.08l.05.63-7.2-1.75c.02.07.03.12.03.12l-.4.26.08.67.06.16,6.07,1.44c.19.05.36.1.53.13l.07.02h0c.44.07.76.08.76.08,0,0,1.85,0,2.97-1.11,1.03-1.04,6.17-4.48,9.37-.76.62.72,1,1.62.98,2.57-.04,1.59-.98,4.06-5.71,5.91-.05-.02-1.56-.66-1.9-1.25,0,0,2.03.34,2.66-.14,0,0-2.68,0-3.63-1.57,0,0,4.8,1.28,5.43-1.72,0,0,.37.08.37,1,0,0,1.17-1.09-.43-2.58,0,0,1.22-.36,1.83.54-.1-.21-1.69-3.73-5.54-1.07-3.97,2.74-4.4,3.19-5.66,1.94,0,0,.26,1.37-.74,1.71-1-.33-.75-1.71-.75-1.71-1.25,1.25-1.68.8-5.65-1.94-3.85-2.66-5.45.86-5.54,1.07.61-.9,1.82-.54,1.82-.54-1.6,1.49-.42,2.58-.42,2.58,0-.92.37-1,.37-1,.63,3,5.43,1.72,5.43,1.72-.76,1.27-2.67,1.51-3.37,1.56v.14c.6.21,1.65.11,2.13.05.16-.02.26-.04.26-.04-.04.07-.1.15-.18.22l-.02.02c-.21.2-.52.4-.81.57l-1.39-.77v.05l-.36.5.08.72,4.3,2.3s-.22,5.01.39,8.42c0,0-1.31-2.11-1.29-7.73l-3.57-2.42v.03c-.45,1.83.3,3.19.3,3.19-1.87-1.29-1.38-3.55-1.38-3.55l-.26-.29.2-.16-3.62-2.45,3.76,2.01-.34-.34.52-.97v-.05l-3.34-1.86c-.44-.78-.59-1.52-.6-2.13-.02-.95.36-1.85.98-2.57l-1.7-1.45,2.52.68v.02s.01-.01.02-.02l2.56.61.23-.73-.15-.17.36-.27-5.16-1.25,5.17.83v-.86s.59-1.89,1.88-2.52c0,0-.95,2.15-.86,2.77.03.25.09.54.15.79l6.38,1.19-.43-8.16c-4.81-1.9-8.18-4.53-8.18-4.53l-.05-.04c-.1.05-.2.09-.3.14,0,0-1.11,1.27-2.11,3.03-.71-1.13-.68-2.19-.68-2.19-.34.23-.66.47-.96.72-.14.12-.28.24-.41.35-.08.08-.17.15-.25.23-8.88,8.2-1.68,22.68-.44,25.02,1.91,1.18,9.48,6.21,14.77,13.17,0,0-7.42-7.19-12.83-10.34l.93,1.1c2.86,3.77,5.65,8.69,5.65,8.69.02.04.05.06.07.09.03.05.05.09.08.13l-.04-.09c.4.6,1.06.97,1.79.97h8.72c.73,0,1.39-.37,1.79-.97l-.04.09s.05-.09.08-.13c.02-.03.05-.06.07-.09,0,0,4.37-7.74,7.79-11.23l.88-3.07h0c2.05-4.8,6.87-18.59-2.21-24.65ZM5.47,4.2c.3,1.41.82,1.94.82,1.94l-.69.86c-.52-1.23-.13-2.8-.13-2.8ZM24.61,17.9c1.51-.99,2.69-.96,2.69-.96-.91,4.35-4.65,2.21-4.65,2.21,0,0,.46-.26,1.96-1.25ZM10.1,16.94s1.18-.03,2.69.96c1.5.99,1.97,1.25,1.97,1.25,0,0-3.74,2.13-4.66-2.21ZM22.98,39.59h-4.72c-1.09-2.35-1.7-4.66-2.01-6.71,1.34,0,2.45.05,2.45.05,0,0,4.68-.2,6.44.15,0,0,.19-1.47-.67-2.35,0,0,.28,1.22.1,1.57-.19.35-3.97-.98-5.86-.73-.7-.1-1.66.03-2.6.2-.42-3.69.06-6.28.06-6.28l-3.21-1.78c.28-.43.67-.94,1.21-1.49.26-.24.54-.47.86-.71.6-.45,1.41-.49,2.04-.09l1.38.85h.51l1.38-.85c.63-.39,1.45-.35,2.04.09.3.22.56.44.8.66h0c1.06,1.08,1.59,2.04,1.79,2.45.01.03.03.06.04.09.03.07.05.11.05.11h0c.72,1.43,3.36,5.41,3.4,6.45,0,0-3.7,4.83-5.49,8.32Z"></path></g></g></g></svg> 